<svg width="254" height="170" viewBox="0 0 254 170" fill="none" xmlns="http://www.w3.org/2000/svg">
<path d="M84.7065 0.556641C38.1476 0.556641 0.406494 38.2978 0.406494 84.8566C0.406494 131.416 38.1476 169.157 84.7065 169.157C131.265 169.157 169.007 131.416 169.007 84.8566C169.007 38.2978 131.265 0.556641 84.7065 0.556641ZM84.7065 110.147C70.738 110.147 59.4165 98.8252 59.4165 84.8566C59.4165 70.8881 70.738 59.5666 84.7065 59.5666C98.675 59.5666 109.997 70.8881 109.997 84.8566C110.016 98.8055 98.7228 110.127 84.7739 110.147C84.7515 110.147 84.729 110.147 84.7065 110.147Z" fill="white"/>
<path d="M179.46 63.7816C200.878 69.9468 226.162 63.7816 226.162 63.7816C218.825 95.8156 195.558 115.879 162.007 118.321C148.71 149.186 118.314 169.176 84.7065 169.157L109.997 88.7738C135.995 6.15416 149.32 0.556641 210.974 0.556641H253.307C246.225 31.7476 221.818 55.5736 179.46 63.7816Z" fill="white"/>
</svg>
